<?xml version="1.0" encoding="utf-8"?>
<!-- Generator: Adobe Illustrator 24.3.0, SVG Export Plug-In . SVG Version: 6.00 Build 0)  -->
<svg version="1.1" id="MTN_Logo" xmlns="http://www.w3.org/2000/svg" xmlns:xlink="http://www.w3.org/1999/xlink" x="0px" y="0px"
	 viewBox="0 0 566.9 283.5" style="enable-background:new 0 0 566.9 283.5;" xml:space="preserve">
<style type="text/css">
	.st0{fill:#FFCB05;}
</style>
<path class="st0" d="M283.5,0C126.9,0,0,63.5,0,141.7s126.9,141.7,283.5,141.7S566.9,220,566.9,141.7S440,0,283.5,0z M283.5,261.1
	c-144.2,0-261.1-53.4-261.1-119.4S139.3,22.4,283.5,22.4s261.1,53.4,261.1,119.3S427.7,261.1,283.5,261.1z M247.7,116.9V94.5h80
	v22.4h-28.8V189h-22.4v-72.1H247.7z M424.2,94.5V189h-22.4l-40.6-56.2V189h-22.4V94.5h22.4l40.6,56.2V94.5L424.2,94.5z M142.1,189
	V94.5h22.4l24.9,38.2l24.9-38.2h22.4V189h-22.4v-53.5l-17,26.1h-15.8l-17-26.1V189H142.1z"/>
</svg>
